<svg id="Layer_1" data-name="Layer 1" xmlns="http://www.w3.org/2000/svg" viewBox="0 0 1080 1080" width="50" height="50">
  <defs>
    <style>
      .cls-1 {
                fill: #ffffff;
            }
    </style>
  </defs>
  <path class="cls-1" d="M853.09,267.46,743,458.11h0l-8.71,15.09A224.58,224.58,0,0,1,506.75,582.89a22.7,22.7,0,0,1-18.64-28.3h0a22.76,22.76,0,0,1,25.48-16.49,179.3,179.3,0,0,0,180-85.09l1.43-2.51L831.72,213.83l18.46-32H819.41a11.65,11.65,0,0,1-9.6-5.12q-7.53-11-15.9-21.34a11.56,11.56,0,0,1,9-18.85H908.61a11.58,11.58,0,0,1,10,17.37Z"/>
  <path class="cls-1" d="M602.84,700.86,550,792.35a11.57,11.57,0,0,1-20,0L464.41,678.82,345.65,473.18a224,224,0,0,1,18.8-252,22.69,22.69,0,0,1,33.8-2h0a22.75,22.75,0,0,1,1.52,30.33,177.19,177.19,0,0,0-14.89,21.85,179.39,179.39,0,0,0-2,175.57l2.05,3.53L521.52,687.1l18.48,32,15.39-26.65a11.65,11.65,0,0,1,9.26-5.75q13.33-1,26.38-3A11.55,11.55,0,0,1,602.84,700.86Z"/>
  <path class="cls-1" d="M302.48,136.56l220.15,0v0H540A224.53,224.53,0,0,1,748.81,278.79a22.7,22.7,0,0,1-15.18,30.29h0a22.76,22.76,0,0,1-27-13.82A179.27,179.27,0,0,0,542.89,181.88H229.82l15.38,26.65a11.65,11.65,0,0,1,.37,10.87q-5.77,12-10.53,24.45a11.56,11.56,0,0,1-20.81,1.64l-52.86-91.56a11.57,11.57,0,0,1,10-17.36Z"/>
</svg>
