<svg id="Layer_1" data-name="Layer 1" xmlns="http://www.w3.org/2000/svg" viewBox="468.57 453.75 492.28 172.48">
  <defs>
    <style>
      .cls-1 {
        fill: #ffffff;
      }
    </style>
    <style class="darkreader darkreader--sync" media="screen"></style>
  </defs>
  <path class="cls-1"
    d="M468.58,560.54A63.48,63.48,0,1,1,532.06,624,63.55,63.55,0,0,1,468.58,560.54Zm114.14,0a50.66,50.66,0,1,0-50.66,50.66A50.72,50.72,0,0,0,582.72,560.54Z">
  </path>
  <path class="cls-1"
    d="M616.27,560.54A63.48,63.48,0,1,1,679.74,624,63.54,63.54,0,0,1,616.27,560.54Zm114.13,0a50.66,50.66,0,1,0-50.66,50.66A50.72,50.72,0,0,0,730.4,560.54Z">
  </path>
  <path class="cls-1"
    d="M723.85,476.58l-.47.27a4.33,4.33,0,0,1-4,.18c-1.46-.69-3-1.35-4.45-2a4.36,4.36,0,0,1-.52-7.81l22.28-12.87a4.37,4.37,0,0,1,6.55,3.78v98a4.36,4.36,0,0,1-4.36,4.36h-4.09a4.37,4.37,0,0,1-4.37-4.36V480.36A4.37,4.37,0,0,0,723.85,476.58Z">
  </path>
  <path class="cls-1"
    d="M960.84,538.91v82.93a4.37,4.37,0,0,1-4.37,4.37H952.4a4.38,4.38,0,0,1-4.28-3.48,4.48,4.48,0,0,1-.09-.89V538.91h0a50.65,50.65,0,0,0-101.21-3.15,3.34,3.34,0,0,1-3.34,3.15h-6.22a3.26,3.26,0,0,1-3.27-3.44v0a63.48,63.48,0,0,1,126.86,3.48Z">
  </path>
  <path class="cls-1"
    d="M862.2,475.06c-1.47.6-2.92,1.25-4.35,1.93a4.48,4.48,0,0,1-4.12-.14l-.47-.27a4.37,4.37,0,0,0-6.56,3.78V621.84a4.37,4.37,0,0,1-4.37,4.37h-4.07a4.37,4.37,0,0,1-4.37-4.37V458.17a4.36,4.36,0,0,1,6.55-3.78l22.28,12.86A4.36,4.36,0,0,1,862.2,475.06Z">
  </path>
  <circle class="cls-1" cx="788.56" cy="615.7" r="8.33"></circle>
  <path class="cls-1"
    d="M810.31,473.91a34.29,34.29,0,0,0-4.11,1.83,4.3,4.3,0,0,1-4.2-.09l-.49-.27a4.36,4.36,0,0,0-6.55,3.78V582a4.37,4.37,0,0,1-4.36,4.37h-4.09a4.37,4.37,0,0,1-4.37-4.37V479.16a4.35,4.35,0,0,0-6.54-3.78l-.47.27a4.29,4.29,0,0,1-4.18.1,34.43,34.43,0,0,0-4.12-1.83,4.36,4.36,0,0,1-.7-7.88l16-9.24,4.1-2.37h0l.08-.05a4.42,4.42,0,0,1,4.42,0l.08.05,4.1,2.37L811,466A4.36,4.36,0,0,1,810.31,473.91Z">
  </path>
</svg>