<svg version="1.1" id="Layer_1" xmlns="http://www.w3.org/2000/svg" xmlns:xlink="http://www.w3.org/1999/xlink" x="0px" y="0px" width="100%" viewBox="0 0 532 143" enable-background="new 0 0 532 143" xml:space="preserve">
  
  <path fill="#FAFAFA" opacity="1.000000" stroke="none" d="
M418.827148,10.097218 
	C430.438171,21.936277 427.328217,38.234047 412.091461,44.647690 
	C415.017853,48.404850 417.865570,52.049778 420.700806,55.704388 
	C423.427917,59.219620 426.142120,62.744881 429.433014,67.004898 
	C423.777283,67.004898 418.868500,67.195145 413.993195,66.875145 
	C412.726837,66.792015 411.250336,65.334427 410.409027,64.131424 
	C406.438599,58.453960 402.655243,52.645691 397.972961,45.638672 
	C397.972961,53.530792 397.972961,60.026165 397.972961,66.756470 
	C393.151428,66.756470 388.896301,66.756470 384.352661,66.756470 
	C384.352661,46.671177 384.352661,26.597961 384.352661,5.604378 
	C395.730316,7.389983 407.753326,2.294395 418.827148,10.097218 
M404.756531,34.395592 
	C410.849609,33.181553 413.898682,29.038591 412.737976,23.550701 
	C411.447998,17.451529 406.582581,15.305283 398.146027,17.059711 
	C398.146027,22.782785 398.146027,28.481165 398.146027,34.426327 
	C400.308014,34.426327 402.115631,34.426327 404.756531,34.395592 
z"/>
  <path fill="#F9F9F9" opacity="1.000000" stroke="none" d="
M280.244446,5.822415 
	C280.394714,7.021916 280.464325,8.471653 279.793091,9.364456 
	C273.000641,18.399183 266.087128,27.342880 259.139008,36.401497 
	C267.106384,46.412899 274.964661,56.287186 283.487061,66.996010 
	C277.257690,66.996010 271.731720,67.151611 266.228973,66.863647 
	C265.139130,66.806610 263.945404,65.184830 263.127838,64.048454 
	C257.643616,56.425747 252.248108,48.739178 246.115234,40.071892 
	C246.115234,49.670326 246.115234,58.043297 246.115234,66.709579 
	C241.499039,66.709579 237.247269,66.709579 232.625702,66.709579 
	C232.625702,46.652161 232.625702,26.478214 232.625702,6.057279 
	C236.971024,6.057279 241.218338,6.057279 245.802002,6.057279 
	C245.802002,14.551935 245.802002,22.975254 245.802002,31.398571 
	C246.106796,31.543537 246.411575,31.688505 246.716370,31.833471 
	C250.084518,27.100306 254.131622,22.703190 256.676117,17.562353 
	C261.611572,7.590783 269.033875,3.683828 280.244446,5.822415 
z"/>
  <path fill="#FAFAFA" opacity="1.000000" stroke="none" d="
M100.993004,64.202980 
	C99.684464,65.404091 98.527710,66.787437 97.261032,66.896729 
	C93.629761,67.210060 89.953949,67.007095 85.421570,67.007095 
	C93.788345,46.364388 101.971329,26.175127 110.100052,6.119742 
	C121.489227,5.142165 121.494835,5.139883 125.485085,14.939895 
	C131.871521,30.624889 138.255753,46.310802 144.621643,62.004139 
	C145.229935,63.503723 145.702164,65.058510 146.229691,66.565193 
	C145.753525,66.764778 145.611710,66.875984 145.469742,66.876198 
	C141.147446,66.882538 135.851517,68.401222 132.781586,66.438988 
	C129.817993,64.544716 129.150299,59.058514 127.328278,54.810413 
	C120.669724,54.810413 113.853088,54.661686 107.054047,54.940933 
	C105.756508,54.994221 104.130135,56.494926 103.363312,57.757683 
	C102.265503,59.565491 101.819122,61.768890 100.993004,64.202980 
M120.612274,34.859760 
	C119.162560,30.953798 117.712845,27.047834 115.853928,22.039333 
	C113.094231,29.929741 110.790199,36.517342 108.398338,43.356033 
	C113.737404,43.356033 118.298302,43.356033 123.435997,43.356033 
	C122.505188,40.510738 121.702095,38.055832 120.612274,34.859760 
z"/>
  <path fill="#FAFAFA" opacity="1.000000" stroke="none" d="
M494.068970,36.999977 
	C494.068970,26.526999 494.068970,16.554020 494.068970,6.199005 
	C505.915405,6.199005 517.591125,6.199005 529.511230,6.199005 
	C529.511230,10.025925 529.511230,13.768949 529.511230,17.999683 
	C522.308655,17.999683 515.240112,17.999683 507.992737,17.999683 
	C507.992737,22.094749 507.992737,25.713554 507.992737,29.797447 
	C514.593567,29.797447 521.328491,29.797447 528.445801,29.797447 
	C528.445801,34.133663 528.445801,38.017426 528.445801,42.398331 
	C521.790527,42.398331 515.042236,42.398331 508.052063,42.398331 
	C508.052063,46.650265 508.052063,50.417763 508.052063,54.717148 
	C515.136169,54.717148 522.203003,54.717148 529.505249,54.717148 
	C529.505249,58.986774 529.505249,62.729877 529.505249,66.741592 
	C517.801331,66.741592 506.229187,66.741592 494.068970,66.741592 
	C494.068970,57.007996 494.068970,47.253986 494.068970,36.999977 
z"/>
  <path fill="#FAFAFA" opacity="1.000000" stroke="none" d="
M59.451012,23.516930 
	C53.496471,38.174973 47.728886,52.496368 41.941185,66.867714 
	C37.938244,66.867714 34.134834,66.867714 30.090908,66.867714 
	C21.968916,46.774223 13.832670,26.645473 5.413453,5.816662 
	C10.006115,5.816662 13.963208,5.546414 17.843941,5.972177 
	C19.098978,6.109869 20.697248,7.868308 21.215328,9.235252 
	C26.098976,22.120670 30.782721,35.081852 35.919106,49.099056 
	C36.775970,46.957714 37.370083,45.576286 37.886414,44.166374 
	C42.111702,32.628609 46.419201,21.119286 50.467907,9.519710 
	C51.447659,6.712716 52.697189,5.473972 55.771774,5.748922 
	C59.064499,6.043381 62.403950,5.815336 66.488350,5.815336 
	C64.077606,11.926304 61.857788,17.553297 59.451012,23.516930 
z"/>
  <path fill="#F9F9F9" opacity="1.000000" stroke="none" d="
M351.010864,5.813694 
	C354.078308,5.813694 356.684875,5.813694 360.178772,5.813694 
	C354.454773,13.920651 349.534302,21.582615 343.891663,28.669600 
	C339.075348,34.718719 336.812897,41.021450 337.586395,48.795509 
	C338.172302,54.684055 337.702484,60.677650 337.702484,66.812820 
	C332.959137,66.812820 328.709839,66.812820 324.019775,66.812820 
	C324.019775,58.201126 324.153290,49.757175 323.927216,41.322861 
	C323.869659,39.176670 323.124695,36.751350 321.919647,34.983028 
	C315.402008,25.418892 308.640594,16.020891 301.433777,5.815923 
	C306.725159,5.815923 311.154358,5.621398 315.547058,5.936020 
	C316.842743,6.028821 318.427979,7.300216 319.208832,8.477139 
	C323.064056,14.287778 326.693787,20.248016 330.802002,26.790855 
	C334.168457,21.428917 337.612854,16.576820 340.367004,11.360275 
	C342.667267,7.003317 345.590698,4.801064 351.010864,5.813694 
z"/>
  <path fill="#F9F9F9" opacity="1.000000" stroke="none" d="
M183.968048,46.922173 
	C183.968048,49.705357 183.968048,52.000671 183.968048,54.758022 
	C191.406982,54.758022 198.468460,54.758022 205.728119,54.758022 
	C205.728119,58.977253 205.728119,62.725796 205.728119,66.743507 
	C194.061722,66.743507 182.486557,66.743507 170.585724,66.743507 
	C170.585724,46.623283 170.585724,26.445513 170.585724,6.039398 
	C174.996368,6.039398 179.242218,6.039398 183.968048,6.039398 
	C183.968048,19.584993 183.968048,33.009647 183.968048,46.922173 
z"/>
  <path fill="#FFFFFF" opacity="1.000000" stroke="none" d="
M465.125061,29.000057 
	C465.125061,41.787231 465.125061,54.074402 465.125061,66.679436 
	C460.769775,66.679436 456.541656,66.679436 451.985840,66.679436 
	C451.985840,46.619980 451.985840,26.479185 451.985840,6.082676 
	C456.228638,6.082676 460.450745,6.082676 465.125061,6.082676 
	C465.125061,13.639974 465.125061,21.070015 465.125061,29.000057 
z"/>
</svg>
